<?xml version="1.0" encoding="utf-8"?>
<!-- Generator: Adobe Illustrator 23.0.2, SVG Export Plug-In . SVG Version: 6.00 Build 0)  -->
<svg version="1.1" id="Layer_1" xmlns="http://www.w3.org/2000/svg" xmlns:xlink="http://www.w3.org/1999/xlink" x="0px" y="0px"
	 viewBox="0 0 619.5 128.2" enable-background="new 0 0 619.5 128.2" xml:space="preserve">
<g>
	<g>
		<path fill="#FFFFFF" d="M53.9,28.1h7.5l25.2,33.5h0l25.2-33.5h7.6v66.4h-8.6V42.1L87.9,72.7h-2.5L62.6,42v52.5h-8.6V28.1z"/>
	</g>
	<circle fill="#FFFFFF" cx="131.9" cy="39.5" r="5.8"/>
	<circle fill="#FFFFFF" cx="131.9" cy="55.5" r="5.8"/>
	<circle fill="#FFFFFF" cx="131.9" cy="71.5" r="5.8"/>
	<circle fill="#FFFFFF" cx="131.9" cy="87.5" r="5.8"/>
	<circle fill="#FFFFFF" cx="41.9" cy="38" r="5.8"/>
	<circle fill="#FFFFFF" cx="41.9" cy="54" r="5.8"/>
	<circle fill="#FFFFFF" cx="41.9" cy="70" r="5.8"/>
	<circle fill="#FFFFFF" cx="41.9" cy="86" r="5.8"/>
	<g>
		<path fill="#FFFFFF" d="M81.9,43V9.1c0-1.8,0.4-3.1,1.2-4s1.8-1.3,3.1-1.3c1.3,0,2.4,0.4,3.2,1.3c0.8,0.9,1.2,2.2,1.2,4V43
			c0,1.8-0.4,3.1-1.2,4s-1.9,1.3-3.2,1.3c-1.3,0-2.3-0.4-3.1-1.3S81.9,44.7,81.9,43z"/>
	</g>
	<g>
		<path fill="#FFFFFF" d="M81.9,119.3V85.4c0-1.8,0.4-3.1,1.2-4s1.8-1.3,3.1-1.3c1.3,0,2.4,0.4,3.2,1.3c0.8,0.9,1.2,2.2,1.2,4v33.8
			c0,1.8-0.4,3.1-1.2,4s-1.9,1.3-3.2,1.3c-1.3,0-2.3-0.4-3.1-1.3S81.9,121,81.9,119.3z"/>
	</g>
	<circle fill="#FFFFFF" cx="147.9" cy="47.5" r="5.8"/>
	<circle fill="#FFFFFF" cx="147.9" cy="63.5" r="5.8"/>
	<circle fill="#FFFFFF" cx="147.9" cy="79.5" r="5.8"/>
	<circle fill="#FFFFFF" cx="25.9" cy="47.5" r="5.8"/>
	<circle fill="#FFFFFF" cx="25.9" cy="63.5" r="5.8"/>
	<circle fill="#FFFFFF" cx="25.9" cy="79.5" r="5.8"/>
	<circle fill="#FFFFFF" cx="162.9" cy="55.5" r="5.8"/>
	<circle fill="#FFFFFF" cx="162.9" cy="71.5" r="5.8"/>
	<circle fill="#FFFFFF" cx="10.9" cy="56.3" r="5.8"/>
	<circle fill="#FFFFFF" cx="10.9" cy="72.3" r="5.8"/>
</g>
<g>
	<path fill="#FFFFFF" d="M249.8,96.5h-3.4V40.3l-31.8,36.1l-30.9-35.8v55.9h-3.4v-65l34.3,39.8l35.1-39.9V96.5z"/>
	<path fill="#FFFFFF" d="M302.8,96.5h-39.6V32h39.6v3.4h-36.2v26.8h30.5v3.4h-30.5v27.6h36.2V96.5z"/>
	<path fill="#FFFFFF" d="M359.4,96.5h-4.1l-19.6-29.8h-16.7v29.8h-3.4V32h23.9c6,0,11,1.7,14.8,5.1c3.4,3.2,5.2,7.6,5.2,13.3
		c0,4.6-1.4,8.2-4.3,11c-1.8,1.6-3.7,2.8-5.8,3.6c-3.3,1.2-6.5,1.8-9.7,1.8L359.4,96.5z M339.5,63.3c0.4,0,1.2,0,2.6-0.1
		c1.4-0.1,3.1-0.4,5.2-1c2.1-0.6,4-1.7,5.7-3.2c2.2-2.1,3.3-4.9,3.3-8.4c0-4.7-1.4-8.3-4.1-10.9c-3.2-2.8-7.3-4.2-12.4-4.2h-20.7
		v27.9H339.5z"/>
	<path fill="#FFFFFF" d="M402.9,97.4c-6.1,0-11.7-1.5-16.7-4.5c-5-3-9.1-7-12.1-12c-3-5-4.5-10.6-4.5-16.7c0-6.1,1.5-11.7,4.5-16.7
		c3-5,7-9,12.1-12c5-3,10.6-4.5,16.7-4.5c6.4,0,12.3,1.6,17.5,4.9c5.2,3.3,9.3,7.6,12.1,13.1h-4.1c-2.7-4.4-6.2-8-10.7-10.6
		c-4.5-2.7-9.4-4-14.9-4c-5.5,0-10.4,1.3-14.9,4s-8.1,6.3-10.8,10.8c-2.7,4.5-4,9.5-4,15c0,5.5,1.3,10.5,4,15
		c2.7,4.5,6.3,8.1,10.8,10.8s9.5,4,14.9,4c5,0,9.7-1.2,13.9-3.5c4.2-2.3,7.7-5.4,10.5-9.4h4.2c-3,4.9-7,8.9-12,11.8
		C414.5,96,409,97.4,402.9,97.4z"/>
	<path fill="#FFFFFF" d="M472.7,97.1c-7.1,0-13-2.3-17.7-7c-4.4-4.6-6.6-9.7-6.6-15.5V32h3.4v42.6c0,4.9,1.9,9.2,5.6,13.1
		c4.2,4,9.3,6,15.2,6c6-0.2,11.2-2.5,15.6-7c3.5-3.8,5.3-7.8,5.3-12V32h3.4v42.6c0,5.1-2.1,10-6.3,14.5
		C485.7,94.2,479.7,96.9,472.7,97.1z"/>
	<path fill="#FFFFFF" d="M555.1,96.5h-4.1l-19.6-29.8h-16.7v29.8h-3.4V32h23.9c6,0,11,1.7,14.8,5.1c3.4,3.2,5.2,7.6,5.2,13.3
		c0,4.6-1.4,8.2-4.3,11c-1.8,1.6-3.7,2.8-5.8,3.6c-3.3,1.2-6.5,1.8-9.7,1.8L555.1,96.5z M535.2,63.3c0.4,0,1.2,0,2.6-0.1
		c1.4-0.1,3.1-0.4,5.2-1c2.1-0.6,4-1.7,5.7-3.2c2.2-2.1,3.3-4.9,3.3-8.4c0-4.7-1.4-8.3-4.1-10.9c-3.2-2.8-7.3-4.2-12.4-4.2h-20.7
		v27.9H535.2z"/>
	<path fill="#FFFFFF" d="M590.6,96.5h-3.4l0.1-32.3c-8.6-12.4-16-23.1-22.1-32.2h4.1c4,6,10.6,15.5,19.7,28.7L609.3,32h4.2
		l-22.8,32.2L590.6,96.5z"/>
</g>
</svg>
